####
#
# OBJ File Generated by Meshlab
#
####
# Object camera_3.obj
#
# Vertices: 190
# Faces: 340
#
####
mtllib ./camera_3.obj.mtl

vn -0.927559 0.342730 0.148895
v -0.128494 0.104839 -0.325781
vn -0.417236 0.743019 0.523294
v -0.107223 0.096791 -0.281630
vn -0.417496 0.742867 0.523302
v -0.107223 0.104854 -0.281630
vn -0.797368 0.589731 -0.128148
v -0.128489 0.096785 -0.325781
vn 0.043943 0.738786 0.672506
v -0.059448 0.104854 -0.270726
vn -0.479346 0.639549 -0.601002
v -0.107225 0.104850 -0.369934
vn -0.168910 0.845263 -0.506952
v -0.189492 0.096796 -0.387057
vn 0.302178 0.590002 0.748723
v -0.059447 0.096785 -0.270722
vn -0.417418 0.742846 -0.523395
v -0.107223 0.096791 -0.369931
vn -0.592261 0.770074 -0.237093
v -0.189508 0.096793 -0.193528
vn 0.424218 0.876807 -0.226383
v 0.004050 0.096797 -0.193528
vn 0.787961 0.484932 0.379418
v -0.021130 0.104844 -0.301277
vn 0.252338 0.738614 -0.625120
v -0.059448 0.104854 -0.380835
vn 0.043936 0.738816 -0.672473
v -0.059448 0.096791 -0.380835
vn -0.973322 -0.162165 -0.162318
v -0.189523 -0.225774 -0.387045
vn 0.603334 0.742692 0.290512
v -0.021136 0.096791 -0.301280
vn -0.676602 0.595502 -0.433113
v -0.189512 0.225799 -0.096776
vn 0.301391 0.904698 -0.301140
v 0.004045 0.096799 -0.387049
vn 0.692522 0.639659 -0.333541
v -0.021133 0.096787 -0.350285
vn 0.787935 0.484947 -0.379455
v -0.021130 0.104844 -0.350286
vn 0.592253 0.651678 -0.473869
v 0.004056 0.126757 -0.171060
vn -0.825174 0.402037 0.396805
v -0.189517 0.120969 -0.048364
vn 0.000000 0.000118 -1.000000
v -0.092726 -0.064502 -0.387076
vn -0.000033 -0.000050 -1.000000
v -0.189485 -0.064502 -0.387076
vn -0.000088 -0.707069 -0.707145
v 0.004033 -0.225795 -0.387064
vn 0.000014 0.000070 -1.000000
v 0.004033 -0.064502 -0.387076
vn -0.487913 0.780743 -0.390360
v 0.068521 0.126762 -0.171057
vn 1.000000 0.000212 -0.000042
v 0.004072 0.096763 0.000000
vn -0.911347 0.186026 -0.367208
v -0.189520 0.120961 0.048365
vn -0.877137 -0.341760 0.337387
v -0.189519 0.199557 -0.048366
vn -0.485077 -0.727612 0.485058
v -0.189504 -0.225796 0.387057
vn 0.487936 0.780726 -0.390366
v 0.068559 0.225806 -0.096775
vn 0.487988 -0.780694 0.390363
v 0.068559 0.126702 -0.171027
vn -0.345016 -0.759060 -0.552079
v 0.004020 0.126703 0.171021
vn -0.592442 -0.651499 0.473880
v 0.004010 0.126707 -0.171024
vn 0.345048 0.759085 0.552025
v 0.004047 0.126761 0.171063
vn -0.813269 0.520420 0.260301
v -0.189517 0.096783 0.193529
vn 0.863783 -0.451799 0.223061
v -0.221705 0.113467 0.057580
vn 0.825166 -0.401978 -0.396882
v -0.189453 0.120938 -0.048394
vn 0.911370 -0.185948 0.367190
v -0.189450 0.120946 0.048394
vn -0.863846 -0.451697 -0.223025
v -0.189519 0.199553 0.048371
vn 0.877116 0.341838 -0.337364
v -0.221704 0.207052 -0.057585
vn 0.877035 0.341923 -0.337490
v -0.189451 0.199584 -0.048392
vn 0.301545 -0.904518 -0.301525
v 0.004045 -0.225803 0.290267
vn 0.488000 0.780689 0.390360
v 0.068559 0.225806 0.096775
vn 0.745514 -0.298056 0.596130
v 0.068569 0.126720 0.171065
vn 0.858847 0.458140 0.229105
v 0.004067 0.096781 0.193528
vn 1.000000 -0.000019 0.000023
v 0.004072 -0.225768 0.000000
vn -0.740775 0.543280 0.395094
v -0.189514 0.225797 0.096775
vn 0.931332 -0.259153 -0.255851
v -0.221702 0.113474 -0.057581
vn 0.789523 0.277321 0.547491
v -0.221708 0.207050 0.057593
vn 0.863748 0.451912 0.222969
v -0.189452 0.199588 0.048388
vn 0.408349 -0.816467 0.408206
v 0.076619 -0.225799 0.387053
vn -0.554697 0.000019 0.832053
v -0.189507 -0.064502 0.387068
vn -0.863813 0.451796 -0.222951
v -0.221772 0.113502 0.057563
vn -0.904576 0.301547 -0.301350
v -0.221773 0.129370 0.041686
vn -0.931243 0.259353 0.255973
v -0.221774 0.113495 -0.057562
vn -0.789538 -0.277289 -0.547486
v -0.221769 0.207028 0.057550
vn -0.816629 -0.408140 -0.408091
v -0.221770 0.191149 0.041682
vn -0.727693 0.485012 0.485000
v -0.221766 0.129377 -0.041679
vn -0.877069 -0.341821 0.337502
v -0.221772 0.207026 -0.057559
vn 0.693713 0.494850 -0.523342
v 0.004060 0.096783 0.290258
vn 0.801813 -0.267261 -0.534479
v 0.076635 -0.225778 0.290257
vn 0.554683 -0.000051 0.832062
v 0.076625 -0.064502 0.387068
vn -0.408164 0.408602 0.816362
v -0.189501 0.096779 0.387068
vn 0.104077 0.941825 0.319583
v 0.004037 0.096800 0.387049
vn -0.816579 -0.408183 0.408150
v -0.221770 0.191149 -0.041682
vn 0.513933 0.366825 0.775444
v 0.076623 0.071803 0.387068
vn -0.577758 0.577149 -0.577144
v -0.205634 0.129381 0.041675
vn -0.577629 -0.577204 0.577218
v -0.205634 0.191143 -0.041675
vn 0.693700 0.494905 -0.523306
v 0.076630 0.071808 0.290258
vn 0.000000 0.000059 1.000000
v -0.056441 -0.064502 0.387076
vn -0.577660 -0.577195 -0.577195
v -0.205634 0.191143 0.041675
vn -0.577541 0.577255 0.577255
v -0.205634 0.129381 -0.041675
vn 0.417190 -0.743002 -0.523355
v -0.107189 0.104799 -0.281673
vn 0.417445 -0.742854 -0.523361
v -0.107189 0.096736 -0.281673
vn 0.927282 -0.343505 -0.148839
v -0.128420 0.104814 -0.325781
vn 0.797130 -0.590124 0.127814
v -0.128425 0.096742 -0.325781
vn -0.043955 -0.738587 -0.672724
v -0.059461 0.104799 -0.270780
vn 0.479035 -0.640004 0.600766
v -0.107186 0.104804 -0.369886
vn 0.169155 -0.845054 0.507219
v -0.189479 0.096731 -0.387017
vn -0.302179 -0.589887 -0.748814
v -0.059461 0.096742 -0.270784
vn 0.417268 -0.743021 0.523265
v -0.107189 0.096736 -0.369888
vn 0.592427 -0.770035 0.236802
v -0.189462 0.096734 -0.193510
vn -0.424306 -0.876821 0.226161
v 0.004017 0.096730 -0.193510
vn -0.787587 -0.485623 -0.379310
v -0.021192 0.104809 -0.301307
vn -0.252164 -0.738751 0.625028
v -0.059461 0.104799 -0.380782
vn -0.043939 -0.738556 0.672759
v -0.059461 0.096736 -0.380782
vn 0.973335 0.162268 0.162135
v -0.189448 -0.225761 -0.387031
vn -0.602770 -0.743230 -0.290305
v -0.021185 0.096736 -0.301303
vn 0.676725 -0.595427 0.433025
v -0.189459 0.225753 -0.096743
vn -0.301620 -0.904385 0.301848
v 0.004022 0.096729 -0.387026
vn -0.692355 -0.639918 0.333392
v -0.021189 0.096740 -0.350257
vn -0.787638 -0.485542 0.379309
v -0.021192 0.104809 -0.350256
vn -0.000036 -0.000054 1.000000
v -0.189485 -0.064502 -0.386998
vn 0.000000 0.000118 1.000000
v -0.092726 -0.064502 -0.386998
vn -0.000091 0.707064 0.707150
v 0.004033 -0.225740 -0.387010
vn 0.000016 0.000072 1.000000
v 0.004033 -0.064502 -0.386998
vn -1.000000 0.000204 -0.000041
v 0.003995 0.096763 0.000000
vn 0.485065 0.727601 -0.485086
v -0.189466 -0.225740 0.387018
vn -0.487964 -0.780712 0.390359
v 0.068521 0.225746 -0.096745
vn 0.813231 -0.520542 -0.260174
v -0.189454 0.096743 0.193509
vn -0.301479 0.904550 0.301496
v 0.004022 -0.225733 0.290290
vn -0.487901 -0.780748 -0.390365
v 0.068521 0.225746 0.096745
vn -0.745193 0.298235 -0.596442
v 0.068511 0.126744 0.171019
vn -0.858946 -0.458022 -0.228972
v 0.004000 0.096746 0.193510
vn -1.000000 -0.000018 0.000021
v 0.003995 -0.225768 0.000000
vn 0.740822 -0.543217 -0.395093
v -0.189457 0.225755 0.096744
vn -0.408155 0.816521 -0.408292
v 0.076588 -0.225736 0.387021
vn 0.554707 0.000015 -0.832046
v -0.189464 -0.064502 0.387005
vn 0.904483 -0.301483 0.301691
v -0.221703 0.129346 0.041709
vn 0.816358 0.408346 0.408428
v -0.221707 0.191181 0.041714
vn 0.727548 -0.485119 -0.485112
v -0.221710 0.129339 -0.041716
vn -0.693638 -0.494908 0.523385
v 0.004006 0.096744 0.290298
vn -0.801753 0.267259 0.534569
v 0.076572 -0.225757 0.290299
vn -0.554721 -0.000054 -0.832037
v 0.076582 -0.064502 0.387005
vn 0.408336 -0.407903 -0.816625
v -0.189469 0.096747 0.387005
vn -0.104008 -0.941736 -0.319869
v 0.004029 0.096727 0.387025
vn 0.816434 0.408298 -0.408324
v -0.221707 0.191181 -0.041714
vn -0.513949 -0.366487 -0.775593
v 0.076583 0.071774 0.387007
vn 0.576976 -0.577537 0.577538
v -0.205590 0.129336 0.041720
vn 0.577061 0.577500 -0.577490
v -0.205590 0.191188 -0.041720
vn -0.693649 -0.494856 0.523419
v 0.076576 0.071770 0.290298
vn 0.000000 0.000066 -1.000000
v -0.056441 -0.064502 0.386998
vn 0.577040 0.577505 0.577505
v -0.205590 0.191188 0.041720
vn 0.577183 -0.577434 -0.577434
v -0.205590 0.129336 -0.041720
vn 0.630026 0.549100 -0.549142
v 0.221765 -0.173695 0.109193
vn 0.731302 0.675644 -0.093288
v 0.181454 -0.218929 -0.000004
vn 0.734525 0.479872 -0.479787
v 0.181453 -0.173697 0.109195
vn 0.731318 0.675625 0.093297
v 0.221770 -0.218929 0.000004
vn 0.336742 0.128813 -0.932744
v 0.181438 -0.064502 0.154416
vn 0.731489 -0.675454 0.093191
v 0.221770 -0.225794 0.000004
vn 0.630333 0.548966 0.548923
v 0.181449 -0.173695 -0.109193
vn 0.819745 -0.078162 -0.567371
v 0.221773 -0.064502 0.154429
vn 0.851633 -0.370528 0.370715
v 0.221774 -0.178549 0.114047
vn 0.734407 -0.479853 -0.479987
v 0.221770 -0.178554 -0.114052
vn 0.734529 0.479826 0.479827
v 0.221770 -0.173697 -0.109195
vn 0.630357 -0.548960 -0.548902
v 0.181449 0.044691 0.109193
vn 0.581155 -0.806158 -0.111212
v 0.221765 0.089919 -0.000004
vn 0.731274 -0.675676 0.093281
v 0.181454 0.089924 0.000004
vn 0.000055 -0.707115 0.707098
v 0.004033 -0.178561 0.114059
vn 0.000051 -0.990602 -0.136775
v 0.004033 -0.225806 -0.000005
vn 0.819602 0.078274 0.567561
v 0.221773 -0.064502 -0.154429
vn 0.851649 -0.370733 -0.370475
v 0.221774 0.044697 0.109199
vn 0.629875 -0.549275 0.549140
v 0.221765 0.044691 -0.109193
vn 0.581194 -0.111197 0.806132
v 0.221764 -0.064502 0.161298
vn 0.000045 -0.707101 -0.707112
v 0.004033 -0.178561 -0.114059
vn 0.336742 -0.128813 0.932744
v 0.181438 -0.064502 -0.154416
vn 0.734526 -0.479873 0.479785
v 0.181453 0.044693 -0.109195
vn 0.629883 0.549119 0.549287
v 0.221765 0.049552 0.114054
vn 0.819710 0.567413 -0.078216
v 0.221774 0.096785 -0.000003
vn 0.000029 0.136777 0.990602
v 0.004033 -0.064502 0.161304
vn 0.000033 -0.136784 -0.990601
v 0.004033 -0.064502 -0.161304
vn 0.581195 0.111205 -0.806131
v 0.221764 -0.064502 -0.161298
vn 0.851635 0.370526 -0.370712
v 0.221774 0.049545 -0.114047
vn 0.000062 0.990605 0.136756
v 0.004033 0.096802 0.000005
vn 0.000062 0.707122 -0.707091
v 0.004033 0.049557 -0.114059
vn 0.000032 0.707101 0.707112
v 0.004033 0.049557 0.114059
vn -0.734495 -0.479806 0.479899
v 0.181399 -0.173736 0.109234
vn -0.731312 -0.675633 0.093289
v 0.181397 -0.218981 0.000004
vn -0.630507 -0.548863 0.548826
v 0.221719 -0.173738 0.109237
vn -0.731295 -0.675652 -0.093281
v 0.221714 -0.218981 -0.000004
vn -0.630160 0.549010 0.549078
v 0.181402 0.044734 0.109237
vn -0.336376 -0.128776 0.932881
v 0.181414 -0.064502 0.154489
vn -0.731121 0.675826 -0.093389
v 0.221714 -0.225742 -0.000004
vn -0.630187 -0.549000 -0.549056
v 0.181402 -0.173738 -0.109237
vn -0.731339 0.675603 -0.093294
v 0.181397 0.089977 -0.000004
vn -0.819081 0.078631 0.568264
v 0.221711 -0.064502 0.154476
vn -0.851291 0.371124 -0.370906
v 0.221710 -0.178519 0.114017
vn -0.734627 0.479827 0.479676
v 0.221715 -0.178515 -0.114013
vn -0.734484 -0.479859 -0.479862
v 0.221715 -0.173736 -0.109234
vn -0.581928 0.805583 0.111338
v 0.221720 0.089982 0.000004
vn 0.000057 0.707097 -0.707117
v 0.004033 -0.178507 0.114005
vn 0.000054 0.990603 0.136771
v 0.004033 -0.225730 0.000005
vn -0.819226 -0.078519 -0.568069
v 0.221711 -0.064502 -0.154476
vn -0.734495 0.479806 -0.479899
v 0.181399 0.044732 -0.109234
vn -0.851272 0.370894 0.371179
v 0.221710 0.044727 0.109230
vn -0.630676 0.548670 -0.548825
v 0.221719 0.044734 -0.109237
vn -0.581896 0.111351 -0.805605
v 0.221721 -0.064502 0.161234
vn 0.000052 0.707110 0.707104
v 0.004033 -0.178507 -0.114005
vn -0.336376 0.128776 -0.932881
v 0.181414 -0.064502 -0.154489
vn -0.630662 -0.548853 -0.548659
v 0.221719 0.049508 0.114010
vn -0.819118 -0.568217 0.078577
v 0.221710 0.096741 0.000003
vn 0.000033 -0.136773 -0.990602
v 0.004033 -0.064502 0.161227
vn 0.000038 0.136760 0.990604
v 0.004033 -0.064502 -0.161227
vn -0.581894 -0.111350 0.805606
v 0.221721 -0.064502 -0.161234
vn -0.851289 -0.371128 0.370906
v 0.221710 0.049515 -0.114017
vn 0.000061 -0.990600 -0.136789
v 0.004033 0.096725 -0.000005
vn 0.000063 -0.707093 0.707121
v 0.004033 0.049502 -0.114005
vn 0.000036 -0.707111 -0.707103
v 0.004033 0.049502 0.114005
# 190 vertices, 0 vertices normals


usemtl material_0
vt -2.721430 8.164290
f 1/1/1 2/1/2 3/1/3
f 2/1/2 1/1/1 4/1/4
f 2/1/2 5/1/5 3/1/3
f 3/1/3 6/1/6 1/1/1
f 6/1/6 4/1/4 1/1/1
f 7/1/7 2/1/2 4/1/4
f 5/1/5 2/1/2 8/1/8
f 6/1/6 3/1/3 5/1/5
f 4/1/4 6/1/6 9/1/9
f 10/1/10 2/1/2 7/1/7
f 9/1/9 7/1/7 4/1/4
f 2/1/2 11/1/11 8/1/8
f 8/1/8 12/1/12 5/1/5
f 6/1/6 5/1/5 13/1/13
f 6/1/6 14/1/14 9/1/9
f 2/1/2 10/1/10 11/1/11
f 15/1/15 10/1/10 7/1/7
f 14/1/14 7/1/7 9/1/9
f 8/1/8 11/1/11 16/1/16
f 12/1/12 8/1/8 16/1/16
f 13/1/13 5/1/5 12/1/12
f 14/1/14 6/1/6 13/1/13
f 17/1/17 11/1/11 10/1/10
f 15/1/15 17/1/17 10/1/10
f 7/1/7 14/1/14 18/1/18
f 16/1/16 11/1/11 19/1/19
f 19/1/19 12/1/12 16/1/16
f 13/1/13 12/1/12 20/1/20
f 13/1/13 19/1/19 14/1/14
f 11/1/11 17/1/17 21/1/21
f 15/1/15 22/1/22 17/1/17
f 7/1/7 23/1/23 24/1/24
f 24/1/24 25/1/25 15/1/15
f 18/1/18 14/1/14 19/1/19
f 26/1/26 7/1/7 18/1/18
f 18/1/18 19/1/19 11/1/11
f 12/1/12 19/1/19 20/1/20
f 19/1/19 13/1/13 20/1/20
f 21/1/21 17/1/17 27/1/27
f 21/1/21 28/1/28 11/1/11
f 15/1/15 29/1/29 22/1/22
f 30/1/30 17/1/17 22/1/22
f 23/1/23 7/1/7 26/1/26
f 25/1/25 24/1/24 26/1/26
f 25/1/25 31/1/31 15/1/15
f 11/1/11 25/1/25 18/1/18
f 27/1/27 17/1/17 32/1/32
f 33/1/33 34/1/34 35/1/35
f 36/1/36 28/1/28 21/1/21
f 28/1/28 25/1/25 11/1/11
f 15/1/15 37/1/37 29/1/29
f 38/1/38 39/1/39 40/1/40
f 41/1/41 17/1/17 30/1/30
f 39/1/39 42/1/42 43/1/43
f 31/1/31 25/1/25 44/1/44
f 31/1/31 37/1/37 15/1/15
f 17/1/17 45/1/45 32/1/32
f 34/1/34 33/1/33 46/1/46
f 28/1/28 36/1/36 47/1/47
f 28/1/28 48/1/48 25/1/25
f 29/1/29 37/1/37 49/1/49
f 39/1/39 38/1/38 50/1/50
f 40/1/40 51/1/51 38/1/38
f 17/1/17 41/1/41 49/1/49
f 42/1/42 52/1/52 43/1/43
f 42/1/42 39/1/39 50/1/50
f 31/1/31 44/1/44 53/1/53
f 54/1/54 37/1/37 31/1/31
f 45/1/45 17/1/17 49/1/49
f 45/1/45 36/1/36 46/1/46
f 36/1/36 37/1/37 47/1/47
f 47/1/47 48/1/48 28/1/28
f 37/1/37 36/1/36 49/1/49
f 29/1/29 49/1/49 41/1/41
f 55/1/55 56/1/56 57/1/57
f 51/1/51 40/1/40 52/1/52
f 58/1/58 59/1/59 55/1/55
f 52/1/52 42/1/42 51/1/51
f 57/1/57 60/1/60 61/1/61
f 48/1/48 62/1/62 44/1/44
f 53/1/53 44/1/44 63/1/63
f 64/1/64 31/1/31 53/1/53
f 37/1/37 54/1/54 65/1/65
f 31/1/31 64/1/64 54/1/54
f 49/1/49 36/1/36 45/1/45
f 37/1/37 66/1/66 47/1/47
f 62/1/62 48/1/48 47/1/47
f 56/1/56 55/1/55 59/1/59
f 57/1/57 56/1/56 60/1/60
f 59/1/59 58/1/58 61/1/61
f 67/1/67 61/1/61 60/1/60
f 62/1/62 63/1/63 44/1/44
f 63/1/63 64/1/64 53/1/53
f 54/1/54 68/1/68 65/1/65
f 66/1/66 37/1/37 65/1/65
f 59/1/59 69/1/69 56/1/56
f 69/1/69 60/1/60 56/1/56
f 59/1/59 61/1/61 67/1/67
f 60/1/60 70/1/70 67/1/67
f 63/1/63 62/1/62 71/1/71
f 64/1/64 63/1/63 68/1/68
f 72/1/72 68/1/68 54/1/54
f 65/1/65 68/1/68 66/1/66
f 68/1/68 72/1/72 64/1/64
f 68/1/68 62/1/62 66/1/66
f 69/1/69 59/1/59 73/1/73
f 60/1/60 69/1/69 74/1/74
f 70/1/70 59/1/59 67/1/67
f 70/1/70 60/1/60 74/1/74
f 62/1/62 68/1/68 71/1/71
f 68/1/68 63/1/63 71/1/71
f 59/1/59 70/1/70 73/1/73
f 70/1/70 69/1/69 73/1/73
f 69/1/69 70/1/70 74/1/74
f 75/1/75 76/1/76 77/1/77
f 78/1/78 77/1/77 76/1/76
f 75/1/75 79/1/79 76/1/76
f 77/1/77 80/1/80 75/1/75
f 77/1/77 78/1/78 80/1/80
f 78/1/78 76/1/76 81/1/81
f 82/1/82 76/1/76 79/1/79
f 79/1/79 75/1/75 80/1/80
f 83/1/83 80/1/80 78/1/78
f 81/1/81 76/1/76 84/1/84
f 78/1/78 81/1/81 83/1/83
f 82/1/82 85/1/85 76/1/76
f 79/1/79 86/1/86 82/1/82
f 87/1/87 79/1/79 80/1/80
f 83/1/83 88/1/88 80/1/80
f 85/1/85 84/1/84 76/1/76
f 81/1/81 84/1/84 89/1/89
f 83/1/83 81/1/81 88/1/88
f 90/1/90 85/1/85 82/1/82
f 90/1/90 82/1/82 86/1/86
f 86/1/86 79/1/79 87/1/87
f 87/1/87 80/1/80 88/1/88
f 84/1/84 85/1/85 91/1/91
f 84/1/84 91/1/91 89/1/89
f 92/1/92 88/1/88 81/1/81
f 93/1/93 85/1/85 90/1/90
f 90/1/90 86/1/86 93/1/93
f 94/1/94 86/1/86 87/1/87
f 88/1/88 93/1/93 87/1/87
f 35/1/35 91/1/91 85/1/85
f 91/1/91 39/1/39 89/1/89
f 95/1/95 96/1/96 81/1/81
f 89/1/89 97/1/97 95/1/95
f 93/1/93 88/1/88 92/1/92
f 92/1/92 81/1/81 98/1/98
f 85/1/85 93/1/93 92/1/92
f 94/1/94 93/1/93 86/1/86
f 94/1/94 87/1/87 93/1/93
f 33/1/33 91/1/91 35/1/35
f 85/1/85 99/1/99 35/1/35
f 39/1/39 40/1/40 89/1/89
f 39/1/39 91/1/91 43/1/43
f 98/1/98 81/1/81 96/1/96
f 98/1/98 95/1/95 97/1/97
f 89/1/89 100/1/100 97/1/97
f 92/1/92 25/1/25 85/1/85
f 101/1/101 91/1/91 33/1/33
f 21/1/21 36/1/36 27/1/27
f 35/1/35 99/1/99 34/1/34
f 85/1/85 25/1/25 99/1/99
f 40/1/40 102/1/102 89/1/89
f 29/1/29 22/1/22 55/1/55
f 43/1/43 91/1/91 52/1/52
f 30/1/30 61/1/61 22/1/22
f 103/1/103 97/1/97 100/1/100
f 89/1/89 102/1/102 100/1/100
f 101/1/101 104/1/104 91/1/91
f 101/1/101 27/1/27 104/1/104
f 105/1/105 27/1/27 36/1/36
f 106/1/106 34/1/34 99/1/99
f 25/1/25 107/1/107 99/1/99
f 108/1/108 102/1/102 40/1/40
f 57/1/57 55/1/55 22/1/22
f 55/1/55 58/1/58 29/1/29
f 108/1/108 52/1/52 91/1/91
f 30/1/30 41/1/41 61/1/61
f 57/1/57 22/1/22 61/1/61
f 109/1/109 103/1/103 100/1/100
f 100/1/100 102/1/102 110/1/110
f 108/1/108 91/1/91 104/1/104
f 105/1/105 104/1/104 27/1/27
f 105/1/105 34/1/34 104/1/104
f 106/1/106 102/1/102 34/1/34
f 99/1/99 107/1/107 106/1/106
f 108/1/108 34/1/34 102/1/102
f 52/1/52 108/1/108 40/1/40
f 50/1/50 111/1/111 38/1/38
f 41/1/41 29/1/29 58/1/58
f 38/1/38 112/1/112 51/1/51
f 58/1/58 61/1/61 41/1/41
f 42/1/42 113/1/113 50/1/50
f 103/1/103 114/1/114 107/1/107
f 115/1/115 103/1/103 109/1/109
f 109/1/109 100/1/100 116/1/116
f 117/1/117 110/1/110 102/1/102
f 110/1/110 116/1/116 100/1/100
f 104/1/104 34/1/34 108/1/108
f 106/1/106 118/1/118 102/1/102
f 106/1/106 107/1/107 114/1/114
f 112/1/112 38/1/38 111/1/111
f 113/1/113 111/1/111 50/1/50
f 42/1/42 51/1/51 112/1/112
f 113/1/113 42/1/42 119/1/119
f 103/1/103 115/1/115 114/1/114
f 109/1/109 116/1/116 115/1/115
f 117/1/117 120/1/120 110/1/110
f 117/1/117 102/1/102 118/1/118
f 111/1/111 121/1/121 112/1/112
f 111/1/111 113/1/113 121/1/121
f 119/1/119 42/1/42 112/1/112
f 119/1/119 122/1/122 113/1/113
f 123/1/123 114/1/114 115/1/115
f 120/1/120 115/1/115 116/1/116
f 110/1/110 120/1/120 124/1/124
f 118/1/118 120/1/120 117/1/117
f 116/1/116 124/1/124 120/1/120
f 118/1/118 114/1/114 120/1/120
f 125/1/125 112/1/112 121/1/121
f 126/1/126 121/1/121 113/1/113
f 119/1/119 112/1/112 122/1/122
f 126/1/126 113/1/113 122/1/122
f 123/1/123 120/1/120 114/1/114
f 123/1/123 115/1/115 120/1/120
f 125/1/125 122/1/122 112/1/112
f 125/1/125 121/1/121 122/1/122
f 126/1/126 122/1/122 121/1/121
vt 4.810690 5.378610
vt 2.721430 8.164290
f 45/1/45 33/2/33 32/3/32
vt -4.810690 5.378610
f 33/2/33 45/1/45 46/4/46
f 127/1/127 128/1/128 129/1/129
f 128/1/128 127/1/127 130/1/130
f 131/1/131 127/1/127 129/1/129
f 127/1/127 132/1/132 130/1/130
f 130/1/130 133/1/133 128/1/128
f 127/1/127 131/1/131 134/1/134
f 127/1/127 135/1/135 132/1/132
f 130/1/130 132/1/132 136/1/136
f 133/1/133 130/1/130 137/1/137
f 138/1/138 134/1/134 131/1/131
f 139/1/139 138/1/138 140/1/140
f 134/1/134 135/1/135 127/1/127
f 141/1/141 132/1/132 135/1/135
f 142/1/142 136/1/136 132/1/132
f 130/1/130 136/1/136 137/1/137
f 143/1/143 133/1/133 137/1/137
f 134/1/134 138/1/138 144/1/144
f 138/1/138 139/1/139 144/1/144
f 140/1/140 145/1/145 139/1/139
f 135/1/135 134/1/134 146/1/146
f 132/1/132 141/1/141 142/1/142
f 146/1/146 141/1/141 135/1/135
f 136/1/136 142/1/142 147/1/147
f 137/1/137 136/1/136 143/1/143
f 133/1/133 143/1/143 148/1/148
f 145/1/145 140/1/140 149/1/149
f 150/1/150 134/1/134 144/1/144
f 151/1/151 144/1/144 139/1/139
f 151/1/151 139/1/139 145/1/145
f 134/1/134 150/1/150 146/1/146
f 141/1/141 146/1/146 152/1/152
f 153/1/153 136/1/136 147/1/147
f 143/1/143 136/1/136 154/1/154
f 145/1/145 148/1/148 143/1/143
f 148/1/148 145/1/145 149/1/149
f 150/1/150 144/1/144 151/1/151
f 151/1/151 145/1/145 155/1/155
f 150/1/150 152/1/152 146/1/146
f 136/1/136 153/1/153 154/1/154
f 155/1/155 143/1/143 154/1/154
f 155/1/155 145/1/145 143/1/143
f 156/1/156 150/1/150 151/1/151
f 157/1/157 151/1/151 155/1/155
f 152/1/152 150/1/150 158/1/158
f 157/1/157 154/1/154 153/1/153
f 154/1/154 157/1/157 155/1/155
f 150/1/150 156/1/156 158/1/158
f 151/1/151 157/1/157 156/1/156
f 159/1/159 160/1/160 161/1/161
f 162/1/162 161/1/161 160/1/160
f 160/1/160 159/1/159 163/1/163
f 159/1/159 161/1/161 164/1/164
f 162/1/162 165/1/165 161/1/161
f 160/1/160 166/1/166 162/1/162
f 164/1/164 163/1/163 159/1/159
f 167/1/167 160/1/160 163/1/163
f 168/1/168 164/1/164 161/1/161
f 165/1/165 169/1/169 161/1/161
f 170/1/170 165/1/165 162/1/162
f 171/1/171 162/1/162 166/1/166
f 166/1/166 160/1/160 167/1/167
f 164/1/164 168/1/168 163/1/163
f 167/1/167 163/1/163 172/1/172
f 161/1/161 169/1/169 168/1/168
f 169/1/169 165/1/165 173/1/173
f 165/1/165 170/1/170 174/1/174
f 171/1/171 170/1/170 162/1/162
f 171/1/171 166/1/166 175/1/175
f 176/1/176 166/1/166 167/1/167
f 177/1/177 163/1/163 168/1/168
f 177/1/177 172/1/172 163/1/163
f 172/1/172 178/1/178 167/1/167
f 179/1/179 168/1/168 169/1/169
f 174/1/174 173/1/173 165/1/165
f 169/1/169 173/1/173 179/1/179
f 180/1/180 174/1/174 170/1/170
f 175/1/175 170/1/170 171/1/171
f 181/1/181 175/1/175 166/1/166
f 181/1/181 166/1/166 176/1/176
f 176/1/176 167/1/167 178/1/178
f 177/1/177 168/1/168 182/1/182
f 172/1/172 177/1/177 183/1/183
f 178/1/178 172/1/172 183/1/183
f 179/1/179 182/1/182 168/1/168
f 184/1/184 179/1/179 173/1/173
f 180/1/180 170/1/170 185/1/185
f 186/1/186 170/1/170 175/1/175
f 175/1/175 181/1/181 178/1/178
f 176/1/176 178/1/178 181/1/181
f 183/1/183 177/1/177 182/1/182
f 187/1/187 178/1/178 183/1/183
f 179/1/179 184/1/184 182/1/182
f 186/1/186 185/1/185 170/1/170
f 186/1/186 175/1/175 187/1/187
f 175/1/175 178/1/178 187/1/187
f 183/1/183 182/1/182 188/1/188
f 187/1/187 183/1/183 189/1/189
f 190/1/190 182/1/182 184/1/184
f 185/1/185 186/1/186 189/1/189
f 187/1/187 189/1/189 186/1/186
f 190/1/190 188/1/188 182/1/182
f 188/1/188 189/1/189 183/1/183
f 138/1/138 129/1/129 128/1/128
f 129/1/129 138/1/138 131/1/131
f 138/1/138 128/1/128 140/1/140
f 140/1/140 128/1/128 133/1/133
f 140/1/140 133/1/133 149/1/149
f 149/1/149 133/1/133 148/1/148
# 340 faces, 4 coords texture

# End of File
